<svg xmlns="http://www.w3.org/2000/svg" xmlns:xlink="http://www.w3.org/1999/xlink" xmlns:a="http://ns.adobe.com/AdobeSVGViewerExtensions/3.0/" version="1.1" x="0px" y="0px" viewBox="0 0 32 40" overflow="visible" enable-background="new 0 0 32 32" xml:space="preserve"><path fill="yellow" d="M25.356,32c-0.233,0-0.468-0.07-0.669-0.21L16,25.734l-8.585,6.052c-0.201,0.141-0.438,0.213-0.673,0.213  c-0.24,0-0.479-0.074-0.683-0.22c-0.403-0.29-0.572-0.803-0.419-1.271l3.416-10.376l-8.562-6.062  c-0.414-0.284-0.593-0.802-0.44-1.275C0.205,12.322,0.651,12,1.157,12h10.472l3.277-11.231C15.066,0.31,15.507,0,16,0  s0.933,0.31,1.094,0.769L20.37,12h10.473c0.506,0,0.952,0.322,1.104,0.796c0.152,0.474-0.026,0.991-0.44,1.275l-8.562,6.062  l3.511,10.368c0.157,0.466-0.007,0.981-0.408,1.273C25.842,31.925,25.6,32,25.356,32z"/></svg>
